# Blender v2.82 (sub 7) OBJ File: 'bee_mesh.blend'
# www.blender.org
mtllib bee_mesh.mtl
o bee_mesh_Sphere
v 0.000000 0.980785 -0.131123
v 0.000000 0.555570 -0.558843
v 0.000000 -0.195090 -0.659201
v 0.000000 -0.831470 -0.373407
v 0.000000 -1.000000 0.000000
v -0.000000 0.980785 0.131123
v -0.000000 0.555570 0.558843
v -0.000000 -0.195090 0.659201
v -0.000000 -0.831470 0.373407
v -0.095135 0.831470 0.344983
v -0.167949 0.195090 0.609022
v -0.142380 -0.555570 0.516304
v -0.033407 -0.980785 0.121142
v -0.000000 1.000000 0.000000
v -0.061728 0.980785 0.092718
v -0.263084 0.555570 0.395162
v -0.310328 -0.195090 0.466125
v -0.175787 -0.831470 0.264039
v -0.229677 0.831470 0.142897
v -0.405464 0.195090 0.252265
v -0.343735 -0.555570 0.213860
v -0.080652 -0.980785 0.050179
v -0.087297 0.980785 0.000000
v -0.372056 0.555570 0.000000
v -0.438870 -0.195090 0.000000
v -0.248600 -0.831470 0.000000
v -0.229677 0.831470 -0.142897
v -0.405463 0.195090 -0.252265
v -0.343735 -0.555570 -0.213860
v -0.080652 -0.980785 -0.050178
v -0.061728 0.980785 -0.092718
v -0.263084 0.555570 -0.395162
v -0.310328 -0.195090 -0.466125
v -0.175787 -0.831470 -0.264038
v -0.095135 0.831470 -0.344983
v -0.167948 0.195090 -0.609021
v -0.142380 -0.555570 -0.516303
v -0.033407 -0.980785 -0.121142
v 0.000000 0.980785 0.131123
v 0.000000 0.555570 0.558843
v 0.000000 -0.195090 0.659201
v 0.000000 -0.831470 0.373407
v -0.000000 -1.000000 -0.000000
v -0.000000 0.980785 -0.131123
v -0.000000 0.555570 -0.558843
v -0.000000 -0.195090 -0.659201
v -0.000000 -0.831470 -0.373407
v 0.095135 0.831470 -0.344983
v 0.167948 0.195090 -0.609022
v 0.142380 -0.555570 -0.516304
v 0.033407 -0.980785 -0.121142
v 0.000000 1.000000 -0.000000
v 0.061728 0.980785 -0.092718
v 0.263084 0.555570 -0.395162
v 0.310328 -0.195090 -0.466125
v 0.175787 -0.831470 -0.264039
v 0.229677 0.831470 -0.142897
v 0.405464 0.195090 -0.252265
v 0.343735 -0.555570 -0.213860
v 0.080652 -0.980785 -0.050179
v 0.087297 0.980785 -0.000000
v 0.372056 0.555570 -0.000000
v 0.438870 -0.195090 -0.000000
v 0.248600 -0.831470 -0.000000
v 0.229677 0.831470 0.142896
v 0.405463 0.195090 0.252265
v 0.343735 -0.555570 0.213860
v 0.080652 -0.980785 0.050178
v 0.061728 0.980785 0.092718
v 0.263084 0.555570 0.395161
v 0.310328 -0.195090 0.466125
v 0.175787 -0.831470 0.264038
v 0.095135 0.831470 0.344983
v 0.167948 0.195090 0.609021
v 0.142380 -0.555570 0.516303
v 0.033407 -0.980785 0.121142
vt 0.659000 0.747965
vt 0.543393 0.861923
vt 0.484595 0.732288
vt 0.592488 0.583224
vt 0.379942 0.580931
vt 0.487971 0.419196
vt 0.647019 0.897258
vt 0.524235 0.961594
vt 0.695242 0.416232
vt 0.579332 0.265309
vt 0.607321 0.127637
vt 0.490953 0.142694
vt 0.514266 0.046024
vt 0.492434 0.005421
vt 0.549233 0.028083
vt 0.399951 0.263374
vt 0.481766 0.994579
vt 0.482226 0.951906
vt 0.309892 0.744200
vt 0.186104 0.589606
vt 0.280813 0.411763
vt 0.423014 0.860624
vt 0.374938 0.125131
vt 0.469730 0.045544
vt 0.238523 0.232642
vt 0.440018 0.960685
vt 0.318651 0.893716
vt 0.162232 0.792279
vt 0.099218 0.391599
vt 0.692958 0.072105
vt 0.877230 0.399990
vt 0.741385 0.238065
vt 0.805589 0.799217
vt 0.786093 0.596077
vt 0.290518 0.067765
vt 0.435159 0.026853
vt 0.546575 0.988537
vt 0.481766 0.994579
vt 0.524235 0.961594
vt 0.647019 0.897258
vt 0.417102 0.987140
vt 0.162232 0.792279
vt 0.099218 0.391599
vt 0.186104 0.589606
vt 0.435159 0.026853
vt 0.290518 0.067765
vt 0.492434 0.005421
vt 0.695242 0.416232
vt 0.579332 0.265309
vt 0.607321 0.127637
vt 0.549233 0.028083
vt 0.659000 0.747965
vt 0.592488 0.583224
vt 0.543393 0.861923
vt 0.484595 0.732288
vt 0.379942 0.580931
vt 0.487971 0.419196
vt 0.490953 0.142694
vt 0.514266 0.046024
vt 0.399951 0.263374
vt 0.482226 0.951906
vt 0.309892 0.744200
vt 0.280813 0.411763
vt 0.423014 0.860624
vt 0.374938 0.125131
vt 0.469730 0.045544
vt 0.238523 0.232642
vt 0.440018 0.960685
vt 0.318651 0.893716
vt 0.417102 0.987140
vt 0.877230 0.399990
vt 0.805589 0.799217
vt 0.786093 0.596077
vt 0.692958 0.072105
vt 0.741385 0.238065
vt 0.546575 0.988537
vn -0.7515 0.3515 0.5582
vn -0.7884 0.5672 0.2380
vn -0.9532 0.3023 0.0000
vn -0.9529 0.0988 0.2867
vn -0.9529 0.0988 -0.2867
vn -0.9955 -0.0944 0.0000
vn -0.1859 0.7122 0.6769
vn -0.4277 0.8524 0.3006
vn -0.7975 -0.1120 0.5928
vn -0.9087 -0.3148 0.2741
vn -0.6343 -0.6172 0.4655
vn -0.8358 -0.5491 0.0000
vn -0.5566 -0.8146 0.1631
vn -0.2542 -0.9671 0.0000
vn 0.1028 -0.9098 0.4020
vn -0.9087 -0.3148 -0.2741
vn -0.4346 0.9006 0.0000
vn -0.6022 0.7983 0.0000
vn -0.7515 0.3515 -0.5582
vn -0.4663 0.1299 -0.8750
vn -0.7975 -0.1120 -0.5928
vn -0.7884 0.5672 -0.2380
vn -0.6343 -0.6172 -0.4655
vn -0.5566 -0.8146 -0.1631
vn -0.3951 -0.4073 -0.8234
vn -0.4277 0.8524 -0.3006
vn -0.1859 0.7122 -0.6769
vn -0.3472 0.3947 -0.8507
vn -0.3933 -0.1270 -0.9106
vn 0.2709 -0.6756 -0.6856
vn 0.3933 -0.1270 -0.9106
vn 0.3951 -0.4073 -0.8234
vn 0.3472 0.3947 -0.8507
vn 0.4663 0.1299 -0.8750
vn -0.2709 -0.6756 -0.6856
vn 0.1028 -0.9098 -0.4020
vn 0.1512 0.8935 -0.4229
vn 0.4346 0.9006 0.0000
vn 0.4277 0.8524 -0.3006
vn 0.1859 0.7122 -0.6769
vn -0.1512 0.8935 -0.4229
vn 0.3472 0.3947 0.8507
vn 0.3933 -0.1270 0.9106
vn 0.4663 0.1299 0.8750
vn -0.1028 -0.9098 0.4020
vn 0.2709 -0.6756 0.6856
vn 0.2542 -0.9671 0.0000
vn 0.7975 -0.1120 -0.5928
vn 0.9087 -0.3148 -0.2741
vn 0.6343 -0.6172 -0.4655
vn -0.1028 -0.9098 -0.4020
vn 0.7515 0.3515 -0.5582
vn 0.9529 0.0988 -0.2867
vn 0.7884 0.5672 -0.2380
vn 0.9532 0.3023 0.0000
vn 0.9529 0.0988 0.2867
vn 0.9955 -0.0944 0.0000
vn 0.8358 -0.5491 0.0000
vn 0.5566 -0.8146 -0.1631
vn 0.9087 -0.3148 0.2741
vn 0.6022 0.7983 0.0000
vn 0.7515 0.3515 0.5582
vn 0.7975 -0.1120 0.5928
vn 0.7884 0.5672 0.2380
vn 0.6343 -0.6172 0.4655
vn 0.5566 -0.8146 0.1631
vn 0.3951 -0.4073 0.8234
vn 0.4277 0.8524 0.3006
vn 0.1859 0.7122 0.6769
vn 0.1512 0.8935 0.4229
vn -0.3933 -0.1270 0.9106
vn -0.3472 0.3947 0.8507
vn -0.4663 0.1299 0.8750
vn -0.2709 -0.6756 0.6856
vn -0.3951 -0.4073 0.8234
vn -0.1512 0.8935 0.4229
usemtl None
s 1
f 16/1/1 19/2/2 24/3/3 20/4/4
f 20/4/4 24/3/3 28/5/5 25/6/6
f 10/7/7 15/8/8 19/2/2 16/1/1
f 17/9/9 20/4/4 25/6/6 21/10/10
f 18/11/11 21/10/10 26/12/12 22/13/13
f 18/11/11 22/13/13 5/14/14 13/15/15
f 21/10/10 25/6/6 29/16/16 26/12/12
f 15/8/8 14/17/17 23/18/18 19/2/2
f 28/5/5 32/19/19 36/20/20 33/21/21
f 24/3/3 27/22/22 32/19/19 28/5/5
f 19/2/2 23/18/18 27/22/22 24/3/3
f 26/12/12 29/16/16 34/23/23 30/24/24
f 25/6/6 28/5/5 33/21/21 29/16/16
f 29/16/16 33/21/21 37/25/25 34/23/23
f 23/18/18 14/17/17 31/26/26 27/22/22
f 26/12/12 30/24/24 5/14/14 22/13/13
f 36/20/20 32/19/19 35/27/27 2/28/28
f 33/21/21 36/20/20 3/29/29 37/25/25
f 47/30/30 46/31/31 50/32/32
f 27/22/22 31/26/26 35/27/27 32/19/19
f 46/31/31 45/33/33 49/34/34
f 34/23/23 37/25/25 4/35/35 38/36/36
f 44/37/37 52/38/38 53/39/39 48/40/40
f 31/26/26 14/17/17 1/41/41 35/27/27
f 34/23/23 38/36/36 5/14/14 30/24/24
f 3/29/29 4/35/35 37/25/25
f 40/42/42 41/43/43 74/44/44
f 76/45/45 42/46/46 43/47/47
f 45/33/33 44/37/37 48/40/40
f 50/32/32 55/48/48 59/49/49 56/50/50
f 47/30/30 50/32/32 56/50/50 51/51/51
f 49/34/34 54/52/52 58/53/53 55/48/48
f 45/33/33 48/40/40 54/52/52 49/34/34
f 47/30/30 51/51/51 43/47/47
f 46/31/31 49/34/34 55/48/48 50/32/32
f 54/52/52 57/54/54 62/55/55 58/53/53
f 58/53/53 62/55/55 66/56/56 63/57/57
f 48/40/40 53/39/39 57/54/54 54/52/52
f 55/48/48 58/53/53 63/57/57 59/49/49
f 56/50/50 59/49/49 64/58/58 60/59/59
f 56/50/50 60/59/59 43/47/47 51/51/51
f 59/49/49 63/57/57 67/60/60 64/58/58
f 53/39/39 52/38/38 61/61/61 57/54/54
f 66/56/56 70/62/62 74/44/44 71/63/63
f 62/55/55 65/64/64 70/62/62 66/56/56
f 57/54/54 61/61/61 65/64/64 62/55/55
f 64/58/58 67/60/60 72/65/65 68/66/66
f 63/57/57 66/56/56 71/63/63 67/60/60
f 67/60/60 71/63/63 75/67/67 72/65/65
f 61/61/61 52/38/38 69/68/68 65/64/64
f 64/58/58 68/66/66 43/47/47 60/59/59
f 74/44/44 70/62/62 73/69/69 40/42/42
f 71/63/63 74/44/44 41/43/43 75/67/67
f 65/64/64 69/68/68 73/69/69 70/62/62
f 72/65/65 75/67/67 42/46/46 76/45/45
f 69/68/68 52/38/38 39/70/70 73/69/69
f 72/65/65 76/45/45 43/47/47 68/66/66
f 41/43/43 42/46/46 75/67/67
f 38/36/36 4/35/35 5/14/14
f 8/71/71 7/72/72 11/73/73
f 2/28/28 3/29/29 36/20/20
f 9/74/74 8/71/71 12/75/75
f 12/75/75 17/9/9 21/10/10 18/11/11
f 1/41/41 2/28/28 35/27/27
f 6/76/76 14/17/17 15/8/8 10/7/7
f 7/72/72 6/76/76 10/7/7
f 39/70/70 40/42/42 73/69/69
f 7/72/72 10/7/7 16/1/1 11/73/73
f 8/71/71 11/73/73 17/9/9 12/75/75
f 9/74/74 12/75/75 18/11/11 13/15/15
f 9/74/74 13/15/15 5/14/14
f 11/73/73 16/1/1 20/4/4 17/9/9
